<svg xmlns='http://www.w3.org/2000/svg' width='50' height='60'>
    <defs>
        <style>
            .cls-1{
                fill:none;
                stroke: #fff;
                stroke-miterlimit: 10;
            }
        </style>
    </defs>
    <rect  x='0' y='0' width='100%' height='100%' fill='#f1f6f1' />
    <polyline class="cls-1" points="12.32 11.98 11.04 15.8 12.96 15.8 11.68 19.63"
      transform="
      rotate(20 0 30)
      scale(2)"/>
    <path class="cls-1" d="M16.78,10.07V22.5H7.22V10.07l.89-.45A1.85,1.85,0,0,0,9.13,8h0a1.85,1.85,0,0,0-.54-1.31l-.42-.41V4.33h0a1.92,1.92,0,0,0,1.92-1.92h3.82a1.92,1.92,0,0,0,1.92,1.92h0V6.24l-.42.41A1.85,1.85,0,0,0,14.87,8h0a1.85,1.85,0,0,0,1,1.66Z"
      transform="
          rotate(20 0 30)
          scale(2)"/>
</svg>
